<svg width="512" height="512" viewBox="0 0 512 512" fill="none" xmlns="http://www.w3.org/2000/svg">
  <!-- Background -->
  <rect width="512" height="512" rx="96" fill="#52796f"/>

  <!-- Trophy with coin design - centered and scaled -->
  <g transform="translate(256, 160) scale(3.5)">
    <!-- Trophy cup top -->
    <path d="M0 16C-10.4 16-19 8.6-19 -2h38c0 10.6-8.6 18-19 18z" stroke="#cad2c5" stroke-width="4" stroke-linecap="round" stroke-linejoin="round"/>

    <!-- Trophy cup middle -->
    <path d="M-8 16v5c0 4.4 3.6 8 8 8s8-3.6 8-8v-5" stroke="#cad2c5" stroke-width="4" stroke-linecap="round" stroke-linejoin="round"/>

    <!-- Trophy base -->
    <path d="M-4 29v24m8-24v24M-12 53h24" stroke="#cad2c5" stroke-width="4" stroke-linecap="round" stroke-linejoin="round"/>

    <!-- Coin/star in center of trophy -->
    <circle cx="0" cy="4" r="5" fill="#84a98c"/>

    <!-- Star/sparkle on coin -->
    <path d="M0 1v6M-3 4h6" stroke="#cad2c5" stroke-width="1.5" stroke-linecap="round"/>
  </g>

  <!-- Decorative elements - coins around trophy -->
  <circle cx="140" cy="280" r="20" fill="#84a98c" opacity="0.4"/>
  <circle cx="372" cy="280" r="20" fill="#84a98c" opacity="0.4"/>
  <circle cx="190" cy="380" r="16" fill="#84a98c" opacity="0.3"/>
  <circle cx="322" cy="380" r="16" fill="#84a98c" opacity="0.3"/>

  <!-- Subtle outer ring -->
  <rect width="512" height="512" rx="96" fill="none" stroke="#cad2c5" stroke-width="8" opacity="0.2"/>
</svg>
